<svg xmlns="http://www.w3.org/2000/svg" xmlns:xlink="http://www.w3.org/1999/xlink" width="500" zoomAndPan="magnify" viewBox="0 0 375 374.999991" height="500" preserveAspectRatio="xMidYMid meet" version="1.0"><defs><g/></defs><g fill="#171616" fill-opacity="1"><g transform="translate(57.815685, 228.759155)"><g><path d="M 27.984375 0 L 1.09375 -68.578125 L 33.375 -68.578125 L 47.671875 -23.21875 L 49.375 -23.21875 L 45.71875 -35.078125 L 56.59375 -68.578125 L 88.734375 -68.578125 L 61.96875 0 Z M 27.984375 0 "/></g></g></g><path stroke-linecap="butt" transform="matrix(0.75, 0, 0, 0.75, 116.393714, 113.03784)" fill="none" stroke-linejoin="miter" d="M 40.719843 57.428717 L 69.92297 57.428717 L 69.92297 124.001638 L 40.719843 124.001638 Z M 40.719843 57.428717 " stroke="#fff9f9" stroke-width="8.900025" stroke-opacity="1" stroke-miterlimit="4"/><g fill="#ff914d" fill-opacity="1"><g transform="translate(146.042149, 206.037834)"><g><path d="M 0.890625 -49.921875 L 22.78125 -49.921875 L 22.78125 0 L 0.890625 0 Z M 0.890625 -49.921875 "/></g></g></g><path stroke-linecap="butt" transform="matrix(0.75, 0, 0, 0.75, 155.654481, 138.016222)" fill="none" stroke-linejoin="miter" d="M 58.101321 123.999212 C 52.017988 123.999212 46.616945 122.87942 41.908612 120.639837 C 37.19507 118.37942 33.512778 114.999211 30.866944 110.499211 C 28.221111 105.978377 26.898194 100.31171 26.898194 93.494002 L 26.898194 40.827331 L 56.070071 40.827331 L 56.070071 57.426291 L 76.382572 57.426291 L 76.382572 84.947126 L 56.070071 84.947126 L 56.070071 94.796085 C 56.070071 95.84296 56.596113 96.363793 57.63778 96.363793 L 76.382572 96.363793 L 76.382572 123.999212 Z M 58.101321 123.999212 " stroke="#fff9f9" stroke-width="8.900025" stroke-opacity="1" stroke-miterlimit="4"/><g fill="#171616" fill-opacity="1"><g transform="translate(175.025573, 231.016216)"><g><path d="M 24.203125 0 C 19.640625 0 15.59375 -0.84375 12.0625 -2.53125 C 8.53125 -4.226562 5.769531 -6.765625 3.78125 -10.140625 C 1.789062 -13.523438 0.796875 -17.769531 0.796875 -22.875 L 0.796875 -62.390625 L 22.6875 -62.390625 L 22.6875 -49.921875 L 37.90625 -49.921875 L 37.90625 -29.28125 L 22.6875 -29.28125 L 22.6875 -21.890625 C 22.6875 -21.117188 23.078125 -20.734375 23.859375 -20.734375 L 37.90625 -20.734375 L 37.90625 0 Z M 24.203125 0 "/></g></g></g><g fill="#ff914d" fill-opacity="1"><g transform="translate(215.787763, 231.016216)"><g><path d="M 26.609375 -51.4375 C 30.171875 -51.4375 33.492188 -50.769531 36.578125 -49.4375 C 39.660156 -48.101562 42.390625 -46.265625 44.765625 -43.921875 C 47.140625 -41.578125 48.992188 -38.847656 50.328125 -35.734375 C 51.660156 -32.617188 52.328125 -29.28125 52.328125 -25.71875 L 52.328125 0 L 30.96875 0 L 30.96875 -25.71875 C 30.96875 -26.90625 30.535156 -27.941406 29.671875 -28.828125 C 28.816406 -29.722656 27.796875 -30.171875 26.609375 -30.171875 C 25.359375 -30.171875 24.300781 -29.722656 23.4375 -28.828125 C 22.582031 -27.941406 22.15625 -26.90625 22.15625 -25.71875 C 22.15625 -24.53125 22.582031 -23.488281 23.4375 -22.59375 C 24.300781 -21.707031 25.359375 -21.265625 26.609375 -21.265625 L 29.71875 -21.265625 L 29.71875 0 L 26.609375 0 C 23.046875 0 19.707031 -0.664062 16.59375 -2 C 13.476562 -3.332031 10.75 -5.1875 8.40625 -7.5625 C 6.0625 -9.9375 4.222656 -12.664062 2.890625 -15.75 C 1.554688 -18.832031 0.890625 -22.15625 0.890625 -25.71875 C 0.890625 -29.28125 1.554688 -32.617188 2.890625 -35.734375 C 4.222656 -38.847656 6.0625 -41.578125 8.40625 -43.921875 C 10.75 -46.265625 13.476562 -48.101562 16.59375 -49.4375 C 19.707031 -50.769531 23.046875 -51.4375 26.609375 -51.4375 Z M 26.609375 -51.4375 "/></g></g></g><g fill="#171616" fill-opacity="1"><g transform="translate(272.888013, 231.022821)"><g><path d="M 24.03125 -41.65625 L 24.03125 -40.046875 L 53.671875 -40.046875 L 53.671875 -22.25 L 24.03125 -22.25 L 24.03125 -20.640625 L 53.671875 -20.640625 L 53.671875 0 L 0.890625 0 L 0.890625 -62.296875 L 53.671875 -62.296875 L 53.671875 -41.65625 Z M 24.03125 -41.65625 "/></g></g></g><g fill="#171616" fill-opacity="1"><g transform="translate(261.524783, 239.972734)"><g><path d="M 0.421875 0 L 0.421875 -4.34375 L 2.171875 -4.34375 C 2.617188 -4.34375 2.957031 -4.238281 3.1875 -4.03125 C 3.425781 -3.820312 3.546875 -3.550781 3.546875 -3.21875 C 3.546875 -2.945312 3.472656 -2.726562 3.328125 -2.5625 C 3.179688 -2.40625 3.003906 -2.296875 2.796875 -2.234375 C 3.046875 -2.191406 3.25 -2.070312 3.40625 -1.875 C 3.570312 -1.675781 3.65625 -1.445312 3.65625 -1.1875 C 3.65625 -0.84375 3.53125 -0.554688 3.28125 -0.328125 C 3.03125 -0.109375 2.679688 0 2.234375 0 Z M 1.21875 -2.515625 L 2.046875 -2.515625 C 2.265625 -2.515625 2.429688 -2.566406 2.546875 -2.671875 C 2.671875 -2.773438 2.734375 -2.921875 2.734375 -3.109375 C 2.734375 -3.296875 2.675781 -3.441406 2.5625 -3.546875 C 2.445312 -3.648438 2.269531 -3.703125 2.03125 -3.703125 L 1.21875 -3.703125 Z M 1.21875 -0.640625 L 2.109375 -0.640625 C 2.335938 -0.640625 2.515625 -0.691406 2.640625 -0.796875 C 2.773438 -0.910156 2.84375 -1.066406 2.84375 -1.265625 C 2.84375 -1.472656 2.773438 -1.632812 2.640625 -1.75 C 2.503906 -1.863281 2.320312 -1.921875 2.09375 -1.921875 L 1.21875 -1.921875 Z M 1.21875 -0.640625 "/></g></g></g><g fill="#171616" fill-opacity="1"><g transform="translate(265.795404, 239.972734)"><g><path d="M 1.546875 0 L 1.546875 -1.546875 L 0.09375 -4.34375 L 0.984375 -4.34375 L 1.953125 -2.34375 L 2.90625 -4.34375 L 3.796875 -4.34375 L 2.34375 -1.546875 L 2.34375 0 Z M 1.546875 0 "/></g></g></g><g fill="#171616" fill-opacity="1"><g transform="translate(270.028831, 239.972734)"><g/></g></g><g fill="#171616" fill-opacity="1"><g transform="translate(271.863523, 239.972734)"><g><path d="M 0.421875 0 L 0.421875 -4.34375 L 1.21875 -4.34375 L 3.25 -1.28125 L 3.25 -4.34375 L 4.046875 -4.34375 L 4.046875 0 L 3.25 0 L 1.21875 -3.046875 L 1.21875 0 Z M 0.421875 0 "/></g></g></g><g fill="#171616" fill-opacity="1"><g transform="translate(276.691986, 239.972734)"><g><path d="M 0.140625 0 L 1.734375 -4.34375 L 2.625 -4.34375 L 4.21875 0 L 3.375 0 L 3.015625 -1 L 1.328125 -1 L 0.96875 0 Z M 1.546875 -1.625 L 2.796875 -1.625 L 2.171875 -3.4375 Z M 1.546875 -1.625 "/></g></g></g><g fill="#171616" fill-opacity="1"><g transform="translate(281.39649, 239.972734)"><g><path d="M 0.421875 0 L 0.421875 -4.34375 L 1.90625 -4.34375 C 2.414062 -4.34375 2.832031 -4.25 3.15625 -4.0625 C 3.488281 -3.882812 3.734375 -3.632812 3.890625 -3.3125 C 4.046875 -2.988281 4.125 -2.609375 4.125 -2.171875 C 4.125 -1.734375 4.046875 -1.351562 3.890625 -1.03125 C 3.734375 -0.707031 3.488281 -0.453125 3.15625 -0.265625 C 2.832031 -0.0859375 2.414062 0 1.90625 0 Z M 1.21875 -0.6875 L 1.859375 -0.6875 C 2.222656 -0.6875 2.507812 -0.742188 2.71875 -0.859375 C 2.9375 -0.972656 3.085938 -1.140625 3.171875 -1.359375 C 3.265625 -1.585938 3.3125 -1.859375 3.3125 -2.171875 C 3.3125 -2.484375 3.265625 -2.75 3.171875 -2.96875 C 3.085938 -3.195312 2.9375 -3.367188 2.71875 -3.484375 C 2.507812 -3.609375 2.222656 -3.671875 1.859375 -3.671875 L 1.21875 -3.671875 Z M 1.21875 -0.6875 "/></g></g></g><g fill="#171616" fill-opacity="1"><g transform="translate(286.162973, 239.972734)"><g><path d="M 0.421875 0 L 0.421875 -4.34375 L 1.21875 -4.34375 L 1.21875 -2.53125 L 3.15625 -2.53125 L 3.15625 -4.34375 L 3.953125 -4.34375 L 3.953125 0 L 3.15625 0 L 3.15625 -1.890625 L 1.21875 -1.890625 L 1.21875 0 Z M 0.421875 0 "/></g></g></g><g fill="#171616" fill-opacity="1"><g transform="translate(290.898466, 239.972734)"><g><path d="M 0.421875 0 L 0.421875 -4.34375 L 1.21875 -4.34375 L 1.21875 0 Z M 0.421875 0 "/></g></g></g><g fill="#171616" fill-opacity="1"><g transform="translate(292.894317, 239.972734)"><g><path d="M 0.421875 0 L 0.421875 -4.34375 L 3.21875 -4.34375 L 3.21875 -3.703125 L 1.21875 -3.703125 L 1.21875 -2.484375 L 2.84375 -2.484375 L 2.84375 -1.859375 L 1.21875 -1.859375 L 1.21875 0 Z M 0.421875 0 "/></g></g></g><g fill="#171616" fill-opacity="1"><g transform="translate(296.669076, 239.972734)"><g/></g></g><g fill="#171616" fill-opacity="1"><g transform="translate(298.503766, 239.972734)"><g><path d="M 1.8125 0.0625 C 1.488281 0.0625 1.207031 0.0078125 0.96875 -0.09375 C 0.738281 -0.207031 0.554688 -0.363281 0.421875 -0.5625 C 0.296875 -0.757812 0.234375 -0.988281 0.234375 -1.25 C 0.234375 -1.53125 0.3125 -1.785156 0.46875 -2.015625 C 0.625 -2.242188 0.859375 -2.425781 1.171875 -2.5625 C 1.046875 -2.707031 0.957031 -2.84375 0.90625 -2.96875 C 0.851562 -3.09375 0.828125 -3.226562 0.828125 -3.375 C 0.828125 -3.570312 0.875 -3.75 0.96875 -3.90625 C 1.070312 -4.0625 1.210938 -4.1875 1.390625 -4.28125 C 1.578125 -4.375 1.800781 -4.421875 2.0625 -4.421875 C 2.320312 -4.421875 2.539062 -4.367188 2.71875 -4.265625 C 2.90625 -4.171875 3.046875 -4.039062 3.140625 -3.875 C 3.234375 -3.71875 3.273438 -3.539062 3.265625 -3.34375 L 2.5 -3.34375 C 2.5 -3.5 2.453125 -3.613281 2.359375 -3.6875 C 2.273438 -3.769531 2.171875 -3.8125 2.046875 -3.8125 C 1.910156 -3.8125 1.800781 -3.769531 1.71875 -3.6875 C 1.632812 -3.613281 1.59375 -3.515625 1.59375 -3.390625 C 1.59375 -3.285156 1.625 -3.175781 1.6875 -3.0625 C 1.75 -2.957031 1.847656 -2.835938 1.984375 -2.703125 L 3.1875 -1.5 C 3.28125 -1.632812 3.375 -1.796875 3.46875 -1.984375 L 3.609375 -2.265625 L 4.421875 -2.265625 L 4.203125 -1.84375 C 4.035156 -1.5 3.867188 -1.210938 3.703125 -0.984375 L 4.703125 0 L 3.75 0 L 3.265625 -0.484375 C 3.054688 -0.285156 2.832031 -0.144531 2.59375 -0.0625 C 2.351562 0.0195312 2.09375 0.0625 1.8125 0.0625 Z M 1 -1.296875 C 1 -1.097656 1.070312 -0.925781 1.21875 -0.78125 C 1.375 -0.644531 1.582031 -0.578125 1.84375 -0.578125 C 2.195312 -0.578125 2.503906 -0.707031 2.765625 -0.96875 L 1.625 -2.109375 C 1.414062 -2.015625 1.257812 -1.898438 1.15625 -1.765625 C 1.050781 -1.628906 1 -1.472656 1 -1.296875 Z M 1 -1.296875 "/></g></g></g><g fill="#171616" fill-opacity="1"><g transform="translate(303.648348, 239.972734)"><g/></g></g><g fill="#ff914d" fill-opacity="1"><g transform="translate(305.485541, 239.972734)"><g><path d="M 0.140625 0 L 1.734375 -4.34375 L 2.625 -4.34375 L 4.21875 0 L 3.375 0 L 3.015625 -1 L 1.328125 -1 L 0.96875 0 Z M 1.546875 -1.625 L 2.796875 -1.625 L 2.171875 -3.4375 Z M 1.546875 -1.625 "/></g></g></g><g fill="#ff914d" fill-opacity="1"><g transform="translate(310.190045, 239.972734)"><g><path d="M 0.421875 0 L 0.421875 -4.34375 L 1.21875 -4.34375 L 1.21875 -0.625 L 3.140625 -0.625 L 3.140625 0 Z M 0.421875 0 "/></g></g></g><g fill="#ff914d" fill-opacity="1"><g transform="translate(313.964802, 239.972734)"><g><path d="M 1.6875 0 L 0.09375 -4.34375 L 0.9375 -4.34375 L 2.171875 -0.8125 L 3.40625 -4.34375 L 4.25 -4.34375 L 2.65625 0 Z M 1.6875 0 "/></g></g></g><g fill="#ff914d" fill-opacity="1"><g transform="translate(318.656908, 239.972734)"><g><path d="M 0.421875 0 L 0.421875 -4.34375 L 1.21875 -4.34375 L 1.21875 0 Z M 0.421875 0 "/></g></g></g><g fill="#ff914d" fill-opacity="1"><g transform="translate(320.65276, 239.972734)"><g><path d="M 0.421875 0 L 0.421875 -4.34375 L 1.21875 -4.34375 L 3.25 -1.28125 L 3.25 -4.34375 L 4.046875 -4.34375 L 4.046875 0 L 3.25 0 L 1.21875 -3.046875 L 1.21875 0 Z M 0.421875 0 "/></g></g></g></svg>